# xmcd
#
# Track frame offsets:
#	150
#	13926
#	29255
#	42502
#	53102
#	65551
#	79679
#	93190
#	104936
#	114190
#	127973
#	141655
#	154381
#	171197
#
# Disc length: 2466 seconds
#
# Revision: 0
# Processed by: cddbd v1.5.2PL0 Copyright (c) Steve Scherf et al.
# Submitted via: EasyCDDAExtractor 15.2.0.1
#
DISCID=c509a00e
DTITLE=Carlito Gomes
DYEAR=1900
DGENRE=
TTITLE0=Ela se foi sem destino
TTITLE1=Quem ama nunca se esquece
TTITLE2=Praias de salvador
TTITLE3=Quero ter seu amor
TTITLE4=Beija flor
TTITLE5=Cheia de denguedem
TTITLE6=Menino vadio
TTITLE7=Gatinha maluca
TTITLE8=Por do sol
TTITLE9=Dia chuvoso
TTITLE10=Que bom, que bom
TTITLE11=Faixa Sem Nome
TTITLE12=Faixa Sem Nome
TTITLE13=Faixa Sem Nome
EXTD=
EXTT0=
EXTT1=
EXTT2=
EXTT3=
EXTT4=
EXTT5=
EXTT6=
EXTT7=
EXTT8=
EXTT9=
EXTT10=
EXTT11=
EXTT12=
EXTT13=
PLAYORDER=
